<?xml version="1.0" encoding="UTF-8" standalone="no"?>
<!DOCTYPE svg PUBLIC "-//W3C//DTD SVG 1.1//EN"
 "http://www.w3.org/Graphics/SVG/1.1/DTD/svg11.dtd">
<!-- Generated by graphviz version 7.0.0 (20221023.0053)
 -->
<!-- Title: G Pages: 1 -->
<svg width="1106pt" height="543pt"
 viewBox="0.00 0.00 1106.20 542.61" xmlns="http://www.w3.org/2000/svg" xmlns:xlink="http://www.w3.org/1999/xlink">
<g id="graph0" class="graph" transform="scale(1 1) rotate(0) translate(21.6 521.01)">
<title>G</title>
<polygon fill="#111111" stroke="none" points="-21.6,21.6 -21.6,-521.01 1084.6,-521.01 1084.6,21.6 -21.6,21.6"/>
<!-- App.js -->
<g id="node1" class="node">
<title>App.js</title>
<path fill="none" stroke="#ff6c60" d="M217.33,-289C217.33,-289 178.67,-289 178.67,-289 174.83,-289 171,-285.17 171,-281.33 171,-281.33 171,-273.67 171,-273.67 171,-269.83 174.83,-266 178.67,-266 178.67,-266 217.33,-266 217.33,-266 221.17,-266 225,-269.83 225,-273.67 225,-273.67 225,-281.33 225,-281.33 225,-285.17 221.17,-289 217.33,-289"/>
<text text-anchor="middle" x="198" y="-273.8" font-family="Arial" font-size="14.00" fill="#ff6c60">App.js</text>
</g>
<!-- api/index.js -->
<g id="node2" class="node">
<title>api/index.js</title>
<path fill="none" stroke="#cfffac" d="M992.83,-268C992.83,-268 924.17,-268 924.17,-268 920.33,-268 916.5,-264.17 916.5,-260.33 916.5,-260.33 916.5,-252.67 916.5,-252.67 916.5,-248.83 920.33,-245 924.17,-245 924.17,-245 992.83,-245 992.83,-245 996.67,-245 1000.5,-248.83 1000.5,-252.67 1000.5,-252.67 1000.5,-260.33 1000.5,-260.33 1000.5,-264.17 996.67,-268 992.83,-268"/>
<text text-anchor="middle" x="958.5" y="-252.8" font-family="Arial" font-size="14.00" fill="#cfffac">api/index.js</text>
</g>
<!-- App.js&#45;&gt;api/index.js -->
<g id="edge1" class="edge">
<title>App.js&#45;&gt;api/index.js</title>
<path fill="none" stroke="#757575" d="M206.49,-289.3C223.87,-315.51 269.73,-378.49 326,-406.5 522.22,-504.18 621.7,-538.01 818,-440.5 887.09,-406.18 931.14,-319.47 948.75,-278.54"/>
<polygon fill="#757575" stroke="#757575" points="951.92,-280.04 952.53,-269.47 945.45,-277.36 951.92,-280.04"/>
</g>
<!-- components/history/history.js -->
<g id="node3" class="node">
<title>components/history/history.js</title>
<path fill="none" stroke="#c6c5fe" d="M525.33,-105C525.33,-105 349.67,-105 349.67,-105 345.83,-105 342,-101.17 342,-97.33 342,-97.33 342,-89.67 342,-89.67 342,-85.83 345.83,-82 349.67,-82 349.67,-82 525.33,-82 525.33,-82 529.17,-82 533,-85.83 533,-89.67 533,-89.67 533,-97.33 533,-97.33 533,-101.17 529.17,-105 525.33,-105"/>
<text text-anchor="middle" x="437.5" y="-89.8" font-family="Arial" font-size="14.00" fill="#c6c5fe">components/history/history.js</text>
</g>
<!-- App.js&#45;&gt;components/history/history.js -->
<g id="edge2" class="edge">
<title>App.js&#45;&gt;components/history/history.js</title>
<path fill="none" stroke="#757575" d="M207.27,-265.79C225.87,-240.19 273.48,-178.58 326,-141.5 344.9,-128.16 368.1,-117.38 388.35,-109.45"/>
<polygon fill="#757575" stroke="#757575" points="389.41,-112.79 397.53,-105.98 386.94,-106.24 389.41,-112.79"/>
</g>
<!-- components/loading/loading.js -->
<g id="node4" class="node">
<title>components/loading/loading.js</title>
<path fill="none" stroke="#c6c5fe" d="M793.33,-146C793.33,-146 609.67,-146 609.67,-146 605.83,-146 602,-142.17 602,-138.33 602,-138.33 602,-130.67 602,-130.67 602,-126.83 605.83,-123 609.67,-123 609.67,-123 793.33,-123 793.33,-123 797.17,-123 801,-126.83 801,-130.67 801,-130.67 801,-138.33 801,-138.33 801,-142.17 797.17,-146 793.33,-146"/>
<text text-anchor="middle" x="701.5" y="-130.8" font-family="Arial" font-size="14.00" fill="#c6c5fe">components/loading/loading.js</text>
</g>
<!-- App.js&#45;&gt;components/loading/loading.js -->
<g id="edge3" class="edge">
<title>App.js&#45;&gt;components/loading/loading.js</title>
<path fill="none" stroke="#757575" d="M213.16,-265.51C235.54,-247.24 281.18,-212.75 326,-195.5 411.4,-162.63 514.4,-147.47 590.74,-140.48"/>
<polygon fill="#757575" stroke="#757575" points="590.64,-144 600.3,-139.64 590.03,-137.03 590.64,-144"/>
</g>
<!-- components/navbar/index.js -->
<g id="node5" class="node">
<title>components/navbar/index.js</title>
<path fill="none" stroke="#ff6c60" d="M522.33,-309C522.33,-309 352.67,-309 352.67,-309 348.83,-309 345,-305.17 345,-301.33 345,-301.33 345,-293.67 345,-293.67 345,-289.83 348.83,-286 352.67,-286 352.67,-286 522.33,-286 522.33,-286 526.17,-286 530,-289.83 530,-293.67 530,-293.67 530,-301.33 530,-301.33 530,-305.17 526.17,-309 522.33,-309"/>
<text text-anchor="middle" x="437.5" y="-293.8" font-family="Arial" font-size="14.00" fill="#ff6c60">components/navbar/index.js</text>
</g>
<!-- App.js&#45;&gt;components/navbar/index.js -->
<g id="edge4" class="edge">
<title>App.js&#45;&gt;components/navbar/index.js</title>
<path fill="none" stroke="#757575" d="M225.32,-279.72C251.6,-281.93 293.67,-285.47 333.37,-288.82"/>
<polygon fill="#757575" stroke="#757575" points="332.99,-292.3 343.25,-289.65 333.58,-285.32 332.99,-292.3"/>
</g>
<!-- components/purchase/purchase.js -->
<g id="node6" class="node">
<title>components/purchase/purchase.js</title>
<path fill="none" stroke="#c6c5fe" d="M541.33,-360C541.33,-360 333.67,-360 333.67,-360 329.83,-360 326,-356.17 326,-352.33 326,-352.33 326,-344.67 326,-344.67 326,-340.83 329.83,-337 333.67,-337 333.67,-337 541.33,-337 541.33,-337 545.17,-337 549,-340.83 549,-344.67 549,-344.67 549,-352.33 549,-352.33 549,-356.17 545.17,-360 541.33,-360"/>
<text text-anchor="middle" x="437.5" y="-344.8" font-family="Arial" font-size="14.00" fill="#c6c5fe">components/purchase/purchase.js</text>
</g>
<!-- App.js&#45;&gt;components/purchase/purchase.js -->
<g id="edge5" class="edge">
<title>App.js&#45;&gt;components/purchase/purchase.js</title>
<path fill="none" stroke="#757575" d="M225.19,-286.02C250.82,-294.29 290.99,-307.08 326,-317.5 344.02,-322.86 363.77,-328.49 381.53,-333.45"/>
<polygon fill="#757575" stroke="#757575" points="380.55,-336.81 391.12,-336.12 382.43,-330.06 380.55,-336.81"/>
</g>
<!-- components/signin/index.js -->
<g id="node7" class="node">
<title>components/signin/index.js</title>
<path fill="none" stroke="#c6c5fe" d="M519.33,-228C519.33,-228 355.67,-228 355.67,-228 351.83,-228 348,-224.17 348,-220.33 348,-220.33 348,-212.67 348,-212.67 348,-208.83 351.83,-205 355.67,-205 355.67,-205 519.33,-205 519.33,-205 523.17,-205 527,-208.83 527,-212.67 527,-212.67 527,-220.33 527,-220.33 527,-224.17 523.17,-228 519.33,-228"/>
<text text-anchor="middle" x="437.5" y="-212.8" font-family="Arial" font-size="14.00" fill="#c6c5fe">components/signin/index.js</text>
</g>
<!-- App.js&#45;&gt;components/signin/index.js -->
<g id="edge6" class="edge">
<title>App.js&#45;&gt;components/signin/index.js</title>
<path fill="none" stroke="#757575" d="M225.22,-270.3C250.87,-263.3 291.06,-252.44 326,-243.5 342.01,-239.4 359.36,-235.1 375.47,-231.16"/>
<polygon fill="#757575" stroke="#757575" points="376.03,-234.63 384.91,-228.86 374.37,-227.82 376.03,-234.63"/>
</g>
<!-- styles/index.css -->
<g id="node8" class="node">
<title>styles/index.css</title>
<path fill="none" stroke="#cfffac" d="M749.33,-431C749.33,-431 653.67,-431 653.67,-431 649.83,-431 646,-427.17 646,-423.33 646,-423.33 646,-415.67 646,-415.67 646,-411.83 649.83,-408 653.67,-408 653.67,-408 749.33,-408 749.33,-408 753.17,-408 757,-411.83 757,-415.67 757,-415.67 757,-423.33 757,-423.33 757,-427.17 753.17,-431 749.33,-431"/>
<text text-anchor="middle" x="701.5" y="-415.8" font-family="Arial" font-size="14.00" fill="#cfffac">styles/index.css</text>
</g>
<!-- App.js&#45;&gt;styles/index.css -->
<g id="edge7" class="edge">
<title>App.js&#45;&gt;styles/index.css</title>
<path fill="none" stroke="#757575" d="M211.09,-289.36C232.34,-309.41 278.62,-349.65 326,-368.5 428.36,-409.21 557.52,-418.46 634.32,-420"/>
<polygon fill="#757575" stroke="#757575" points="634.15,-423.5 644.2,-420.16 634.26,-416.5 634.15,-423.5"/>
</g>
<!-- components/history/history.js&#45;&gt;components/loading/loading.js -->
<g id="edge10" class="edge">
<title>components/history/history.js&#45;&gt;components/loading/loading.js</title>
<path fill="none" stroke="#757575" d="M514.99,-105.47C545.66,-110.27 581.18,-115.83 612.88,-120.79"/>
<polygon fill="#757575" stroke="#757575" points="612,-124.19 622.42,-122.28 613.09,-117.28 612,-124.19"/>
</g>
<!-- components/history/history&#45;row.js -->
<g id="node9" class="node">
<title>components/history/history&#45;row.js</title>
<path fill="none" stroke="#cfffac" d="M802.33,-64C802.33,-64 600.67,-64 600.67,-64 596.83,-64 593,-60.17 593,-56.33 593,-56.33 593,-48.67 593,-48.67 593,-44.83 596.83,-41 600.67,-41 600.67,-41 802.33,-41 802.33,-41 806.17,-41 810,-44.83 810,-48.67 810,-48.67 810,-56.33 810,-56.33 810,-60.17 806.17,-64 802.33,-64"/>
<text text-anchor="middle" x="701.5" y="-48.8" font-family="Arial" font-size="14.00" fill="#cfffac">components/history/history&#45;row.js</text>
</g>
<!-- components/history/history.js&#45;&gt;components/history/history&#45;row.js -->
<g id="edge8" class="edge">
<title>components/history/history.js&#45;&gt;components/history/history&#45;row.js</title>
<path fill="none" stroke="#757575" d="M514.99,-81.53C545.66,-76.73 581.18,-71.17 612.88,-66.21"/>
<polygon fill="#757575" stroke="#757575" points="613.09,-69.72 622.42,-64.72 612,-62.81 613.09,-69.72"/>
</g>
<!-- components/history/history.css -->
<g id="node10" class="node">
<title>components/history/history.css</title>
<path fill="none" stroke="#cfffac" d="M794.33,-23C794.33,-23 608.67,-23 608.67,-23 604.83,-23 601,-19.17 601,-15.33 601,-15.33 601,-7.67 601,-7.67 601,-3.83 604.83,0 608.67,0 608.67,0 794.33,0 794.33,0 798.17,0 802,-3.83 802,-7.67 802,-7.67 802,-15.33 802,-15.33 802,-19.17 798.17,-23 794.33,-23"/>
<text text-anchor="middle" x="701.5" y="-7.8" font-family="Arial" font-size="14.00" fill="#cfffac">components/history/history.css</text>
</g>
<!-- components/history/history.js&#45;&gt;components/history/history.css -->
<g id="edge9" class="edge">
<title>components/history/history.js&#45;&gt;components/history/history.css</title>
<path fill="none" stroke="#757575" d="M461.99,-81.57C490.43,-67.6 540.09,-44.7 585,-31.5 591.94,-29.46 599.17,-27.6 606.49,-25.91"/>
<polygon fill="#757575" stroke="#757575" points="607.13,-29.36 616.15,-23.8 605.64,-22.52 607.13,-29.36"/>
</g>
<!-- utils/handlers.js -->
<g id="node11" class="node">
<title>utils/handlers.js</title>
<path fill="none" stroke="#c6c5fe" d="M748.83,-105C748.83,-105 654.17,-105 654.17,-105 650.33,-105 646.5,-101.17 646.5,-97.33 646.5,-97.33 646.5,-89.67 646.5,-89.67 646.5,-85.83 650.33,-82 654.17,-82 654.17,-82 748.83,-82 748.83,-82 752.67,-82 756.5,-85.83 756.5,-89.67 756.5,-89.67 756.5,-97.33 756.5,-97.33 756.5,-101.17 752.67,-105 748.83,-105"/>
<text text-anchor="middle" x="701.5" y="-89.8" font-family="Arial" font-size="14.00" fill="#c6c5fe">utils/handlers.js</text>
</g>
<!-- components/history/history.js&#45;&gt;utils/handlers.js -->
<g id="edge11" class="edge">
<title>components/history/history.js&#45;&gt;utils/handlers.js</title>
<path fill="none" stroke="#757575" d="M533.46,-93.5C567.09,-93.5 604.16,-93.5 634.82,-93.5"/>
<polygon fill="#757575" stroke="#757575" points="634.72,-97 644.72,-93.5 634.72,-90 634.72,-97"/>
</g>
<!-- components/loading/loading.css -->
<g id="node13" class="node">
<title>components/loading/loading.css</title>
<path fill="none" stroke="#cfffac" d="M1055.33,-146C1055.33,-146 861.67,-146 861.67,-146 857.83,-146 854,-142.17 854,-138.33 854,-138.33 854,-130.67 854,-130.67 854,-126.83 857.83,-123 861.67,-123 861.67,-123 1055.33,-123 1055.33,-123 1059.17,-123 1063,-126.83 1063,-130.67 1063,-130.67 1063,-138.33 1063,-138.33 1063,-142.17 1059.17,-146 1055.33,-146"/>
<text text-anchor="middle" x="958.5" y="-130.8" font-family="Arial" font-size="14.00" fill="#cfffac">components/loading/loading.css</text>
</g>
<!-- components/loading/loading.js&#45;&gt;components/loading/loading.css -->
<g id="edge15" class="edge">
<title>components/loading/loading.js&#45;&gt;components/loading/loading.css</title>
<path fill="none" stroke="#757575" d="M801.45,-134.5C814.8,-134.5 828.58,-134.5 842.18,-134.5"/>
<polygon fill="#757575" stroke="#757575" points="842.03,-138 852.03,-134.5 842.03,-131 842.03,-138"/>
</g>
<!-- components/navbar/navbar.css -->
<g id="node14" class="node">
<title>components/navbar/navbar.css</title>
<path fill="none" stroke="#cfffac" d="M795.83,-310C795.83,-310 607.17,-310 607.17,-310 603.33,-310 599.5,-306.17 599.5,-302.33 599.5,-302.33 599.5,-294.67 599.5,-294.67 599.5,-290.83 603.33,-287 607.17,-287 607.17,-287 795.83,-287 795.83,-287 799.67,-287 803.5,-290.83 803.5,-294.67 803.5,-294.67 803.5,-302.33 803.5,-302.33 803.5,-306.17 799.67,-310 795.83,-310"/>
<text text-anchor="middle" x="701.5" y="-294.8" font-family="Arial" font-size="14.00" fill="#cfffac">components/navbar/navbar.css</text>
</g>
<!-- components/navbar/index.js&#45;&gt;components/navbar/navbar.css -->
<g id="edge16" class="edge">
<title>components/navbar/index.js&#45;&gt;components/navbar/navbar.css</title>
<path fill="none" stroke="#757575" d="M530.13,-297.85C548.76,-297.92 568.56,-298 587.82,-298.07"/>
<polygon fill="#757575" stroke="#757575" points="587.55,-301.57 597.57,-298.11 587.58,-294.57 587.55,-301.57"/>
</g>
<!-- components/navbar/navbar.js -->
<g id="node15" class="node">
<title>components/navbar/navbar.js</title>
<path fill="none" stroke="#ff6c60" d="M790.83,-269C790.83,-269 612.17,-269 612.17,-269 608.33,-269 604.5,-265.17 604.5,-261.33 604.5,-261.33 604.5,-253.67 604.5,-253.67 604.5,-249.83 608.33,-246 612.17,-246 612.17,-246 790.83,-246 790.83,-246 794.67,-246 798.5,-249.83 798.5,-253.67 798.5,-253.67 798.5,-261.33 798.5,-261.33 798.5,-265.17 794.67,-269 790.83,-269"/>
<text text-anchor="middle" x="701.5" y="-253.8" font-family="Arial" font-size="14.00" fill="#ff6c60">components/navbar/navbar.js</text>
</g>
<!-- components/navbar/index.js&#45;&gt;components/navbar/navbar.js -->
<g id="edge17" class="edge">
<title>components/navbar/index.js&#45;&gt;components/navbar/navbar.js</title>
<path fill="none" stroke="#757575" d="M516.75,-285.55C546.43,-281.02 580.45,-275.83 611.08,-271.15"/>
<polygon fill="#757575" stroke="#757575" points="611.34,-274.65 620.7,-269.68 610.29,-267.73 611.34,-274.65"/>
</g>
<!-- components/purchase/purchase.js&#45;&gt;api/index.js -->
<g id="edge19" class="edge">
<title>components/purchase/purchase.js&#45;&gt;api/index.js</title>
<path fill="none" stroke="#757575" d="M549.3,-349.56C625.85,-347.93 729.44,-340.98 818,-318.5 857.41,-308.5 899.68,-288.22 927.23,-273.57"/>
<polygon fill="#757575" stroke="#757575" points="928.57,-276.83 935.7,-268.99 925.24,-270.67 928.57,-276.83"/>
</g>
<!-- components/purchase/purchase.js&#45;&gt;styles/index.css -->
<g id="edge21" class="edge">
<title>components/purchase/purchase.js&#45;&gt;styles/index.css</title>
<path fill="none" stroke="#757575" d="M474.9,-360.45C496.49,-367.6 524.35,-376.92 549,-385.5 565.07,-391.09 568.57,-394.07 585,-398.5 600.91,-402.79 618.29,-406.46 634.62,-409.48"/>
<polygon fill="#757575" stroke="#757575" points="633.78,-412.89 644.24,-411.2 635.02,-405.99 633.78,-412.89"/>
</g>
<!-- components/purchase/purchase.css -->
<g id="node16" class="node">
<title>components/purchase/purchase.css</title>
<path fill="none" stroke="#cfffac" d="M810.33,-390C810.33,-390 592.67,-390 592.67,-390 588.83,-390 585,-386.17 585,-382.33 585,-382.33 585,-374.67 585,-374.67 585,-370.83 588.83,-367 592.67,-367 592.67,-367 810.33,-367 810.33,-367 814.17,-367 818,-370.83 818,-374.67 818,-374.67 818,-382.33 818,-382.33 818,-386.17 814.17,-390 810.33,-390"/>
<text text-anchor="middle" x="701.5" y="-374.8" font-family="Arial" font-size="14.00" fill="#cfffac">components/purchase/purchase.css</text>
</g>
<!-- components/purchase/purchase.js&#45;&gt;components/purchase/purchase.css -->
<g id="edge20" class="edge">
<title>components/purchase/purchase.js&#45;&gt;components/purchase/purchase.css</title>
<path fill="none" stroke="#757575" d="M543.18,-360.49C556.9,-362.06 571.02,-363.67 584.91,-365.26"/>
<polygon fill="#757575" stroke="#757575" points="584.15,-368.7 594.48,-366.36 584.95,-361.75 584.15,-368.7"/>
</g>
<!-- components/signin/signin.css -->
<g id="node17" class="node">
<title>components/signin/signin.css</title>
<path fill="none" stroke="#cfffac" d="M790.33,-228C790.33,-228 612.67,-228 612.67,-228 608.83,-228 605,-224.17 605,-220.33 605,-220.33 605,-212.67 605,-212.67 605,-208.83 608.83,-205 612.67,-205 612.67,-205 790.33,-205 790.33,-205 794.17,-205 798,-208.83 798,-212.67 798,-212.67 798,-220.33 798,-220.33 798,-224.17 794.17,-228 790.33,-228"/>
<text text-anchor="middle" x="701.5" y="-212.8" font-family="Arial" font-size="14.00" fill="#cfffac">components/signin/signin.css</text>
</g>
<!-- components/signin/index.js&#45;&gt;components/signin/signin.css -->
<g id="edge22" class="edge">
<title>components/signin/index.js&#45;&gt;components/signin/signin.css</title>
<path fill="none" stroke="#757575" d="M527.2,-216.5C548.44,-216.5 571.34,-216.5 593.31,-216.5"/>
<polygon fill="#757575" stroke="#757575" points="593.19,-220 603.19,-216.5 593.19,-213 593.19,-220"/>
</g>
<!-- components/signin/signin.js -->
<g id="node18" class="node">
<title>components/signin/signin.js</title>
<path fill="none" stroke="#c6c5fe" d="M784.83,-187C784.83,-187 618.17,-187 618.17,-187 614.33,-187 610.5,-183.17 610.5,-179.33 610.5,-179.33 610.5,-171.67 610.5,-171.67 610.5,-167.83 614.33,-164 618.17,-164 618.17,-164 784.83,-164 784.83,-164 788.67,-164 792.5,-167.83 792.5,-171.67 792.5,-171.67 792.5,-179.33 792.5,-179.33 792.5,-183.17 788.67,-187 784.83,-187"/>
<text text-anchor="middle" x="701.5" y="-171.8" font-family="Arial" font-size="14.00" fill="#c6c5fe">components/signin/signin.js</text>
</g>
<!-- components/signin/index.js&#45;&gt;components/signin/signin.js -->
<g id="edge23" class="edge">
<title>components/signin/index.js&#45;&gt;components/signin/signin.js</title>
<path fill="none" stroke="#757575" d="M514.99,-204.53C545.66,-199.73 581.18,-194.17 612.88,-189.21"/>
<polygon fill="#757575" stroke="#757575" points="613.09,-192.72 622.42,-187.72 612,-185.81 613.09,-192.72"/>
</g>
<!-- utils/handlers.js&#45;&gt;api/index.js -->
<g id="edge26" class="edge">
<title>utils/handlers.js&#45;&gt;api/index.js</title>
<path fill="none" stroke="#757575" d="M756.78,-95.34C777.01,-97.91 799.54,-103.15 818,-113.5 839.15,-125.36 837.35,-136.87 854,-154.5 881.73,-183.87 915.26,-216.41 936.49,-236.66"/>
<polygon fill="#757575" stroke="#757575" points="934.03,-239.14 943.69,-243.49 938.85,-234.07 934.03,-239.14"/>
</g>
<!-- components/history/index.js -->
<g id="node12" class="node">
<title>components/history/index.js</title>
<path fill="none" stroke="#c6c5fe" d="M282.33,-64C282.33,-64 113.67,-64 113.67,-64 109.83,-64 106,-60.17 106,-56.33 106,-56.33 106,-48.67 106,-48.67 106,-44.83 109.83,-41 113.67,-41 113.67,-41 282.33,-41 282.33,-41 286.17,-41 290,-44.83 290,-48.67 290,-48.67 290,-56.33 290,-56.33 290,-60.17 286.17,-64 282.33,-64"/>
<text text-anchor="middle" x="198" y="-48.8" font-family="Arial" font-size="14.00" fill="#c6c5fe">components/history/index.js</text>
</g>
<!-- components/history/index.js&#45;&gt;components/history/history.js -->
<g id="edge14" class="edge">
<title>components/history/index.js&#45;&gt;components/history/history.js</title>
<path fill="none" stroke="#757575" d="M268.33,-64.47C295.77,-69.21 327.49,-74.68 355.94,-79.59"/>
<polygon fill="#757575" stroke="#757575" points="355.14,-83.01 365.59,-81.26 356.33,-76.11 355.14,-83.01"/>
</g>
<!-- components/history/index.js&#45;&gt;components/history/history&#45;row.js -->
<g id="edge12" class="edge">
<title>components/history/index.js&#45;&gt;components/history/history&#45;row.js</title>
<path fill="none" stroke="#757575" d="M290.4,-52.5C372.09,-52.5 492.29,-52.5 581.47,-52.5"/>
<polygon fill="#757575" stroke="#757575" points="581.22,-56 591.22,-52.5 581.22,-49 581.22,-56"/>
</g>
<!-- components/history/index.js&#45;&gt;components/history/history.css -->
<g id="edge13" class="edge">
<title>components/history/index.js&#45;&gt;components/history/history.css</title>
<path fill="none" stroke="#757575" d="M290.4,-45.03C374.52,-38.15 499.51,-27.93 589.37,-20.59"/>
<polygon fill="#757575" stroke="#757575" points="589.51,-24.09 599.19,-19.78 588.94,-17.11 589.51,-24.09"/>
</g>
<!-- components/navbar/navbar.js&#45;&gt;App.js -->
<g id="edge18" class="edge">
<title>components/navbar/navbar.js&#45;&gt;App.js</title>
<path fill="none" stroke="#757575" d="M604.25,-261.34C492.41,-265.8 313.39,-272.94 236.3,-276.01"/>
<polygon fill="#757575" stroke="#757575" points="236.62,-272.5 226.77,-276.39 236.9,-279.49 236.62,-272.5"/>
</g>
<!-- components/signin/signin.js&#45;&gt;api/index.js -->
<g id="edge24" class="edge">
<title>components/signin/signin.js&#45;&gt;api/index.js</title>
<path fill="none" stroke="#757575" d="M786.02,-187.49C796.87,-189.77 807.77,-192.43 818,-195.5 855.94,-206.9 897.26,-225.85 925.01,-239.61"/>
<polygon fill="#757575" stroke="#757575" points="923.08,-242.56 933.59,-243.93 926.22,-236.31 923.08,-242.56"/>
</g>
<!-- index.js -->
<g id="node19" class="node">
<title>index.js</title>
<path fill="none" stroke="#c6c5fe" d="M58.33,-289C58.33,-289 11.67,-289 11.67,-289 7.83,-289 4,-285.17 4,-281.33 4,-281.33 4,-273.67 4,-273.67 4,-269.83 7.83,-266 11.67,-266 11.67,-266 58.33,-266 58.33,-266 62.17,-266 66,-269.83 66,-273.67 66,-273.67 66,-281.33 66,-281.33 66,-285.17 62.17,-289 58.33,-289"/>
<text text-anchor="middle" x="35" y="-273.8" font-family="Arial" font-size="14.00" fill="#c6c5fe">index.js</text>
</g>
<!-- index.js&#45;&gt;App.js -->
<g id="edge25" class="edge">
<title>index.js&#45;&gt;App.js</title>
<path fill="none" stroke="#757575" d="M66.28,-277.5C92.58,-277.5 130.8,-277.5 159.12,-277.5"/>
<polygon fill="#757575" stroke="#757575" points="159.07,-281 169.07,-277.5 159.07,-274 159.07,-281"/>
</g>
<!-- worker.js -->
<g id="node20" class="node">
<title>worker.js</title>
<path fill="none" stroke="#cfffac" d="M62.33,-330C62.33,-330 7.67,-330 7.67,-330 3.83,-330 0,-326.17 0,-322.33 0,-322.33 0,-314.67 0,-314.67 0,-310.83 3.83,-307 7.67,-307 7.67,-307 62.33,-307 62.33,-307 66.17,-307 70,-310.83 70,-314.67 70,-314.67 70,-322.33 70,-322.33 70,-326.17 66.17,-330 62.33,-330"/>
<text text-anchor="middle" x="35" y="-314.8" font-family="Arial" font-size="14.00" fill="#cfffac">worker.js</text>
</g>
</g>
</svg>
