<?xml version="1.0" encoding="UTF-8" standalone="no"?>
<!DOCTYPE svg PUBLIC "-//W3C//DTD SVG 1.1//EN"
 "http://www.w3.org/Graphics/SVG/1.1/DTD/svg11.dtd">
<!-- Generated by graphviz version 7.0.0 (20221023.0053)
 -->
<!-- Title: G Pages: 1 -->
<svg width="976pt" height="346pt"
 viewBox="0.00 0.00 976.20 346.20" xmlns="http://www.w3.org/2000/svg" xmlns:xlink="http://www.w3.org/1999/xlink">
<g id="graph0" class="graph" transform="scale(1 1) rotate(0) translate(21.6 324.6)">
<title>G</title>
<polygon fill="#111111" stroke="none" points="-21.6,21.6 -21.6,-324.6 954.6,-324.6 954.6,21.6 -21.6,21.6"/>
<!-- App.js -->
<g id="node1" class="node">
<title>App.js</title>
<path fill="none" stroke="#ff6c60" d="M152.33,-122C152.33,-122 113.67,-122 113.67,-122 109.83,-122 106,-118.17 106,-114.33 106,-114.33 106,-106.67 106,-106.67 106,-102.83 109.83,-99 113.67,-99 113.67,-99 152.33,-99 152.33,-99 156.17,-99 160,-102.83 160,-106.67 160,-106.67 160,-114.33 160,-114.33 160,-118.17 156.17,-122 152.33,-122"/>
<text text-anchor="middle" x="133" y="-106.8" font-family="Arial" font-size="14.00" fill="#ff6c60">App.js</text>
</g>
<!-- api/index.js -->
<g id="node2" class="node">
<title>api/index.js</title>
<path fill="none" stroke="#cfffac" d="M862.83,-162C862.83,-162 794.17,-162 794.17,-162 790.33,-162 786.5,-158.17 786.5,-154.33 786.5,-154.33 786.5,-146.67 786.5,-146.67 786.5,-142.83 790.33,-139 794.17,-139 794.17,-139 862.83,-139 862.83,-139 866.67,-139 870.5,-142.83 870.5,-146.67 870.5,-146.67 870.5,-154.33 870.5,-154.33 870.5,-158.17 866.67,-162 862.83,-162"/>
<text text-anchor="middle" x="828.5" y="-146.8" font-family="Arial" font-size="14.00" fill="#cfffac">api/index.js</text>
</g>
<!-- App.js&#45;&gt;api/index.js -->
<g id="edge1" class="edge">
<title>App.js&#45;&gt;api/index.js</title>
<path fill="none" stroke="#757575" d="M160.34,-112.02C262.86,-117.93 636.39,-139.48 775.14,-147.48"/>
<polygon fill="#757575" stroke="#757575" points="774.58,-150.95 784.76,-148.04 774.98,-143.96 774.58,-150.95"/>
</g>
<!-- components/history/history.js -->
<g id="node3" class="node">
<title>components/history/history.js</title>
<path fill="none" stroke="#c6c5fe" d="M395.33,-222C395.33,-222 219.67,-222 219.67,-222 215.83,-222 212,-218.17 212,-214.33 212,-214.33 212,-206.67 212,-206.67 212,-202.83 215.83,-199 219.67,-199 219.67,-199 395.33,-199 395.33,-199 399.17,-199 403,-202.83 403,-206.67 403,-206.67 403,-214.33 403,-214.33 403,-218.17 399.17,-222 395.33,-222"/>
<text text-anchor="middle" x="307.5" y="-206.8" font-family="Arial" font-size="14.00" fill="#c6c5fe">components/history/history.js</text>
</g>
<!-- App.js&#45;&gt;components/history/history.js -->
<g id="edge2" class="edge">
<title>App.js&#45;&gt;components/history/history.js</title>
<path fill="none" stroke="#757575" d="M154.47,-122.36C184.68,-139.88 241.42,-172.77 276.39,-193.04"/>
<polygon fill="#757575" stroke="#757575" points="274.35,-195.9 284.75,-197.89 277.86,-189.85 274.35,-195.9"/>
</g>
<!-- components/loading/loading.js -->
<g id="node4" class="node">
<title>components/loading/loading.js</title>
<path fill="none" stroke="#c6c5fe" d="M663.33,-303C663.33,-303 479.67,-303 479.67,-303 475.83,-303 472,-299.17 472,-295.33 472,-295.33 472,-287.67 472,-287.67 472,-283.83 475.83,-280 479.67,-280 479.67,-280 663.33,-280 663.33,-280 667.17,-280 671,-283.83 671,-287.67 671,-287.67 671,-295.33 671,-295.33 671,-299.17 667.17,-303 663.33,-303"/>
<text text-anchor="middle" x="571.5" y="-287.8" font-family="Arial" font-size="14.00" fill="#c6c5fe">components/loading/loading.js</text>
</g>
<!-- App.js&#45;&gt;components/loading/loading.js -->
<g id="edge3" class="edge">
<title>App.js&#45;&gt;components/loading/loading.js</title>
<path fill="none" stroke="#757575" d="M136.37,-122.46C141.94,-147.25 158.37,-204.18 196,-231.5 272.2,-286.84 380.15,-299.07 460.59,-299.09"/>
<polygon fill="#757575" stroke="#757575" points="460.26,-302.59 470.24,-299.02 460.21,-295.59 460.26,-302.59"/>
</g>
<!-- components/purchase/purchase.js -->
<g id="node5" class="node">
<title>components/purchase/purchase.js</title>
<path fill="none" stroke="#ff6c60" d="M411.33,-102C411.33,-102 203.67,-102 203.67,-102 199.83,-102 196,-98.17 196,-94.33 196,-94.33 196,-86.67 196,-86.67 196,-82.83 199.83,-79 203.67,-79 203.67,-79 411.33,-79 411.33,-79 415.17,-79 419,-82.83 419,-86.67 419,-86.67 419,-94.33 419,-94.33 419,-98.17 415.17,-102 411.33,-102"/>
<text text-anchor="middle" x="307.5" y="-86.8" font-family="Arial" font-size="14.00" fill="#ff6c60">components/purchase/purchase.js</text>
</g>
<!-- App.js&#45;&gt;components/purchase/purchase.js -->
<g id="edge4" class="edge">
<title>App.js&#45;&gt;components/purchase/purchase.js</title>
<path fill="none" stroke="#757575" d="M160.2,-102.45C167.37,-101.11 175.64,-99.75 184.52,-98.44"/>
<polygon fill="#757575" stroke="#757575" points="184.72,-101.94 194.13,-97.07 183.74,-95.01 184.72,-101.94"/>
</g>
<!-- styles/index.css -->
<g id="node6" class="node">
<title>styles/index.css</title>
<path fill="none" stroke="#cfffac" d="M619.33,-23C619.33,-23 523.67,-23 523.67,-23 519.83,-23 516,-19.17 516,-15.33 516,-15.33 516,-7.67 516,-7.67 516,-3.83 519.83,0 523.67,0 523.67,0 619.33,0 619.33,0 623.17,0 627,-3.83 627,-7.67 627,-7.67 627,-15.33 627,-15.33 627,-19.17 623.17,-23 619.33,-23"/>
<text text-anchor="middle" x="571.5" y="-7.8" font-family="Arial" font-size="14.00" fill="#cfffac">styles/index.css</text>
</g>
<!-- App.js&#45;&gt;styles/index.css -->
<g id="edge5" class="edge">
<title>App.js&#45;&gt;styles/index.css</title>
<path fill="none" stroke="#757575" d="M147.8,-98.82C159.76,-89.36 177.95,-76.48 196,-69.5 298.87,-29.72 427.61,-17.17 504.22,-13.24"/>
<polygon fill="#757575" stroke="#757575" points="504.27,-16.74 514.09,-12.78 503.93,-9.75 504.27,-16.74"/>
</g>
<!-- components/history/history.js&#45;&gt;api/index.js -->
<g id="edge6" class="edge">
<title>components/history/history.js&#45;&gt;api/index.js</title>
<path fill="none" stroke="#757575" d="M403.13,-211.92C480.32,-211.61 591.9,-207.79 688,-191.5 720.92,-185.92 757.06,-175.16 784.31,-166.06"/>
<polygon fill="#757575" stroke="#757575" points="785.26,-169.44 793.6,-162.9 783.01,-162.81 785.26,-169.44"/>
</g>
<!-- components/history/history.js&#45;&gt;components/loading/loading.js -->
<g id="edge8" class="edge">
<title>components/history/history.js&#45;&gt;components/loading/loading.js</title>
<path fill="none" stroke="#757575" d="M337.09,-222.41C379.73,-240.16 455,-271.5 455,-271.5 462.01,-273.54 469.32,-275.4 476.71,-277.09"/>
<polygon fill="#757575" stroke="#757575" points="475.96,-280.51 486.48,-279.21 477.45,-273.67 475.96,-280.51"/>
</g>
<!-- components/history/history.css -->
<g id="node7" class="node">
<title>components/history/history.css</title>
<path fill="none" stroke="#cfffac" d="M664.33,-262C664.33,-262 478.67,-262 478.67,-262 474.83,-262 471,-258.17 471,-254.33 471,-254.33 471,-246.67 471,-246.67 471,-242.83 474.83,-239 478.67,-239 478.67,-239 664.33,-239 664.33,-239 668.17,-239 672,-242.83 672,-246.67 672,-246.67 672,-254.33 672,-254.33 672,-258.17 668.17,-262 664.33,-262"/>
<text text-anchor="middle" x="571.5" y="-246.8" font-family="Arial" font-size="14.00" fill="#cfffac">components/history/history.css</text>
</g>
<!-- components/history/history.js&#45;&gt;components/history/history.css -->
<g id="edge7" class="edge">
<title>components/history/history.js&#45;&gt;components/history/history.css</title>
<path fill="none" stroke="#757575" d="M386.75,-222.45C416.43,-226.98 450.45,-232.17 481.08,-236.85"/>
<polygon fill="#757575" stroke="#757575" points="480.29,-240.27 490.7,-238.32 481.34,-233.35 480.29,-240.27"/>
</g>
<!-- utils/handlers.js -->
<g id="node8" class="node">
<title>utils/handlers.js</title>
<path fill="none" stroke="#c6c5fe" d="M618.83,-182C618.83,-182 524.17,-182 524.17,-182 520.33,-182 516.5,-178.17 516.5,-174.33 516.5,-174.33 516.5,-166.67 516.5,-166.67 516.5,-162.83 520.33,-159 524.17,-159 524.17,-159 618.83,-159 618.83,-159 622.67,-159 626.5,-162.83 626.5,-166.67 626.5,-166.67 626.5,-174.33 626.5,-174.33 626.5,-178.17 622.67,-182 618.83,-182"/>
<text text-anchor="middle" x="571.5" y="-166.8" font-family="Arial" font-size="14.00" fill="#c6c5fe">utils/handlers.js</text>
</g>
<!-- components/history/history.js&#45;&gt;utils/handlers.js -->
<g id="edge9" class="edge">
<title>components/history/history.js&#45;&gt;utils/handlers.js</title>
<path fill="none" stroke="#757575" d="M386.75,-198.55C424.44,-192.8 469.12,-185.98 504.99,-180.5"/>
<polygon fill="#757575" stroke="#757575" points="505.45,-183.97 514.81,-179 504.39,-177.05 505.45,-183.97"/>
</g>
<!-- components/loading/loading.css -->
<g id="node9" class="node">
<title>components/loading/loading.css</title>
<path fill="none" stroke="#cfffac" d="M925.33,-303C925.33,-303 731.67,-303 731.67,-303 727.83,-303 724,-299.17 724,-295.33 724,-295.33 724,-287.67 724,-287.67 724,-283.83 727.83,-280 731.67,-280 731.67,-280 925.33,-280 925.33,-280 929.17,-280 933,-283.83 933,-287.67 933,-287.67 933,-295.33 933,-295.33 933,-299.17 929.17,-303 925.33,-303"/>
<text text-anchor="middle" x="828.5" y="-287.8" font-family="Arial" font-size="14.00" fill="#cfffac">components/loading/loading.css</text>
</g>
<!-- components/loading/loading.js&#45;&gt;components/loading/loading.css -->
<g id="edge10" class="edge">
<title>components/loading/loading.js&#45;&gt;components/loading/loading.css</title>
<path fill="none" stroke="#757575" d="M671.45,-291.5C684.8,-291.5 698.58,-291.5 712.18,-291.5"/>
<polygon fill="#757575" stroke="#757575" points="712.03,-295 722.03,-291.5 712.03,-288 712.03,-295"/>
</g>
<!-- components/purchase/purchase.js&#45;&gt;App.js -->
<g id="edge11" class="edge">
<title>components/purchase/purchase.js&#45;&gt;App.js</title>
<path fill="none" stroke="#757575" d="M256.75,-102.45C229.54,-106.5 196.39,-110.18 171.4,-111.84"/>
<polygon fill="#757575" stroke="#757575" points="171.5,-108.33 161.71,-112.39 171.89,-115.32 171.5,-108.33"/>
</g>
<!-- components/purchase/purchase.js&#45;&gt;api/index.js -->
<g id="edge12" class="edge">
<title>components/purchase/purchase.js&#45;&gt;api/index.js</title>
<path fill="none" stroke="#757575" d="M419.48,-93.12C495.45,-96.13 598.27,-102.6 688,-116.5 717.31,-121.04 749.52,-128.71 775.59,-135.61"/>
<polygon fill="#757575" stroke="#757575" points="774.34,-138.9 784.9,-138.12 776.16,-132.14 774.34,-138.9"/>
</g>
<!-- components/purchase/purchase.js&#45;&gt;styles/index.css -->
<g id="edge14" class="edge">
<title>components/purchase/purchase.js&#45;&gt;styles/index.css</title>
<path fill="none" stroke="#757575" d="M337.66,-78.57C378.66,-61.83 449.05,-33.19 455,-31.5 470.82,-27 488.17,-23.35 504.5,-20.45"/>
<polygon fill="#757575" stroke="#757575" points="504.85,-23.95 514.12,-18.83 503.68,-17.04 504.85,-23.95"/>
</g>
<!-- components/purchase/purchase.css -->
<g id="node10" class="node">
<title>components/purchase/purchase.css</title>
<path fill="none" stroke="#cfffac" d="M680.33,-64C680.33,-64 462.67,-64 462.67,-64 458.83,-64 455,-60.17 455,-56.33 455,-56.33 455,-48.67 455,-48.67 455,-44.83 458.83,-41 462.67,-41 462.67,-41 680.33,-41 680.33,-41 684.17,-41 688,-44.83 688,-48.67 688,-48.67 688,-56.33 688,-56.33 688,-60.17 684.17,-64 680.33,-64"/>
<text text-anchor="middle" x="571.5" y="-48.8" font-family="Arial" font-size="14.00" fill="#cfffac">components/purchase/purchase.css</text>
</g>
<!-- components/purchase/purchase.js&#45;&gt;components/purchase/purchase.css -->
<g id="edge13" class="edge">
<title>components/purchase/purchase.js&#45;&gt;components/purchase/purchase.css</title>
<path fill="none" stroke="#757575" d="M391.04,-78.53C418.32,-74.57 448.86,-70.14 476.9,-66.08"/>
<polygon fill="#757575" stroke="#757575" points="477.03,-69.59 486.43,-64.69 476.03,-62.67 477.03,-69.59"/>
</g>
<!-- utils/handlers.js&#45;&gt;api/index.js -->
<g id="edge16" class="edge">
<title>utils/handlers.js&#45;&gt;api/index.js</title>
<path fill="none" stroke="#757575" d="M626.89,-166.23C670.57,-162.81 731.54,-158.03 774.77,-154.64"/>
<polygon fill="#757575" stroke="#757575" points="774.99,-158.13 784.68,-153.86 774.44,-151.15 774.99,-158.13"/>
</g>
<!-- index.js -->
<g id="node11" class="node">
<title>index.js</title>
<path fill="none" stroke="#c6c5fe" d="M58.33,-122C58.33,-122 11.67,-122 11.67,-122 7.83,-122 4,-118.17 4,-114.33 4,-114.33 4,-106.67 4,-106.67 4,-102.83 7.83,-99 11.67,-99 11.67,-99 58.33,-99 58.33,-99 62.17,-99 66,-102.83 66,-106.67 66,-106.67 66,-114.33 66,-114.33 66,-118.17 62.17,-122 58.33,-122"/>
<text text-anchor="middle" x="35" y="-106.8" font-family="Arial" font-size="14.00" fill="#c6c5fe">index.js</text>
</g>
<!-- index.js&#45;&gt;App.js -->
<g id="edge15" class="edge">
<title>index.js&#45;&gt;App.js</title>
<path fill="none" stroke="#757575" d="M66.38,-110.5C75.26,-110.5 85.08,-110.5 94.35,-110.5"/>
<polygon fill="#757575" stroke="#757575" points="94.19,-114 104.19,-110.5 94.19,-107 94.19,-114"/>
</g>
<!-- worker.js -->
<g id="node12" class="node">
<title>worker.js</title>
<path fill="none" stroke="#cfffac" d="M62.33,-163C62.33,-163 7.67,-163 7.67,-163 3.83,-163 0,-159.17 0,-155.33 0,-155.33 0,-147.67 0,-147.67 0,-143.83 3.83,-140 7.67,-140 7.67,-140 62.33,-140 62.33,-140 66.17,-140 70,-143.83 70,-147.67 70,-147.67 70,-155.33 70,-155.33 70,-159.17 66.17,-163 62.33,-163"/>
<text text-anchor="middle" x="35" y="-147.8" font-family="Arial" font-size="14.00" fill="#cfffac">worker.js</text>
</g>
</g>
</svg>
